<svg xmlns="http://www.w3.org/2000/svg" xmlns:xlink="http://www.w3.org/1999/xlink" contentStyleType="text/css" data-diagram-type="DESCRIPTION" height="550px" preserveAspectRatio="none" style="width:746px;height:550px;background:#FFFFFF;" version="1.1" viewBox="0 0 746 550" width="746px" zoomAndPan="magnify"><title>Container Diagram for Simple Version Control System (C4 Level 2)</title><defs/><g><g class="title" data-source-line="6"><text fill="#000000" font-family="sans-serif" font-size="14" font-weight="bold" lengthAdjust="spacing" textLength="524.7881" x="103.856" y="22.9951">Container Diagram for Simple Version Control System (C4 Level 2)</text></g><!--cluster SimpleVcs System--><g class="cluster" data-entity="SimpleVcs System" data-source-line="12" data-uid="ent0005" id="cluster_SimpleVcs System"><path d="M447,181.7969 L592.4434,181.7969 A3.75,3.75 0 0 1 594.9434,184.2969 L601.9434,204.0938 L737,204.0938 A2.5,2.5 0 0 1 739.5,206.5938 L739.5,541.2969 A2.5,2.5 0 0 1 737,543.7969 L447,543.7969 A2.5,2.5 0 0 1 444.5,541.2969 L444.5,184.2969 A2.5,2.5 0 0 1 447,181.7969" fill="none" style="stroke:#444444;stroke-width:1.5;"/><line style="stroke:#444444;stroke-width:1.5;" x1="444.5" x2="601.9434" y1="204.0938" y2="204.0938"/><text fill="#000000" font-family="sans-serif" font-size="14" font-weight="bold" lengthAdjust="spacing" textLength="144.4434" x="448.5" y="196.792">SimpleVcs System</text></g><!--cluster Spring Boot Application--><g class="cluster" data-entity="Spring Boot Application" data-source-line="15" data-uid="ent0006" id="cluster_Spring Boot Application"><path d="M471,224.7969 L659.4414,224.7969 A3.75,3.75 0 0 1 661.9414,227.2969 L668.9414,247.0938 L713,247.0938 A2.5,2.5 0 0 1 715.5,249.5938 L715.5,352.2969 A2.5,2.5 0 0 1 713,354.7969 L471,354.7969 A2.5,2.5 0 0 1 468.5,352.2969 L468.5,227.2969 A2.5,2.5 0 0 1 471,224.7969" fill="none" style="stroke:#444444;stroke-width:1.5;"/><line style="stroke:#444444;stroke-width:1.5;" x1="468.5" x2="668.9414" y1="247.0938" y2="247.0938"/><text fill="#000000" font-family="sans-serif" font-size="14" font-weight="bold" lengthAdjust="spacing" textLength="187.4414" x="472.5" y="239.792">Spring Boot Application</text><text fill="#444444" font-family="sans-serif" font-size="14" font-style="italic" lengthAdjust="spacing" textLength="231.4033" x="480.2983" y="262.0889">&#171;(Java, Spring Boot, Thymeleaf)&#187;</text></g><!--cluster Data Layer--><g class="cluster" data-entity="Data Layer" data-source-line="20" data-uid="ent0008" id="cluster_Data Layer"><polygon fill="none" points="515.5,428.7969,525.5,418.7969,687.5,418.7969,687.5,509.7969,677.5,519.7969,515.5,519.7969,515.5,428.7969" style="stroke:#444444;stroke-width:1;"/><line style="stroke:#444444;stroke-width:1;" x1="677.5" x2="687.5" y1="428.7969" y2="418.7969"/><line style="stroke:#444444;stroke-width:1;" x1="515.5" x2="677.5" y1="428.7969" y2="428.7969"/><line style="stroke:#444444;stroke-width:1;" x1="677.5" x2="677.5" y1="428.7969" y2="519.7969"/><text fill="#000000" font-family="sans-serif" font-size="14" font-weight="bold" lengthAdjust="spacing" textLength="85.9756" x="554.5122" y="444.792">Data Layer</text></g><!--entity webapp--><g class="entity" data-entity="webapp" data-source-line="16" data-uid="ent0007" id="entity_webapp"><rect fill="#F1F1F1" height="62.5938" rx="2.5" ry="2.5" style="stroke:#181818;stroke-width:0.5;" width="184.9971" x="509" y="275.7969"/><rect fill="#F1F1F1" height="10" style="stroke:#181818;stroke-width:0.5;" width="15" x="673.9971" y="280.7969"/><rect fill="#F1F1F1" height="2" style="stroke:#181818;stroke-width:0.5;" width="4" x="671.9971" y="282.7969"/><rect fill="#F1F1F1" height="2" style="stroke:#181818;stroke-width:0.5;" width="4" x="671.9971" y="286.7969"/><text fill="#000000" font-family="sans-serif" font-size="14" font-style="italic" lengthAdjust="spacing" textLength="99.1348" x="546.9312" y="308.792">&#171;Spring Boot&#187;</text><text fill="#000000" font-family="sans-serif" font-size="14" lengthAdjust="spacing" textLength="144.9971" x="524" y="325.0889">Spring Boot WebApp</text></g><!--entity DB--><g class="entity" data-entity="DB" data-source-line="21" data-uid="ent0009" id="entity_DB"><path d="M532,468.7969 C532,458.7969 601.6606,458.7969 601.6606,458.7969 C601.6606,458.7969 671.3213,458.7969 671.3213,468.7969 L671.3213,494.0938 C671.3213,504.0938 601.6606,504.0938 601.6606,504.0938 C601.6606,504.0938 532,504.0938 532,494.0938 L532,468.7969" fill="#F1F1F1" style="stroke:#181818;stroke-width:0.5;"/><path d="M532,468.7969 C532,478.7969 601.6606,478.7969 601.6606,478.7969 C601.6606,478.7969 671.3213,478.7969 671.3213,468.7969" fill="none" style="stroke:#181818;stroke-width:0.5;"/><text fill="#000000" font-family="sans-serif" font-size="14" lengthAdjust="spacing" textLength="119.3213" x="542" y="495.792">MySQL Database</text></g><!--entity admin--><g class="entity" data-entity="admin" data-source-line="8" data-uid="ent0002" id="entity_admin"><ellipse cx="28.4321" cy="51.2969" fill="#F1F1F1" rx="8" ry="8" style="stroke:#181818;stroke-width:0.5;"/><path d="M28.4321,59.2969 L28.4321,86.2969 M15.4321,67.2969 L41.4321,67.2969 M28.4321,86.2969 L15.4321,101.2969 M28.4321,86.2969 L41.4321,101.2969" fill="none" style="stroke:#181818;stroke-width:0.5;"/><text fill="#000000" font-family="sans-serif" font-size="14" lengthAdjust="spacing" textLength="44.8643" x="6" y="115.792">Admin</text></g><!--entity user--><g class="entity" data-entity="user" data-source-line="9" data-uid="ent0003" id="entity_user"><ellipse cx="252.4551" cy="51.2969" fill="#F1F1F1" rx="8" ry="8" style="stroke:#181818;stroke-width:0.5;"/><path d="M252.4551,59.2969 L252.4551,86.2969 M239.4551,67.2969 L265.4551,67.2969 M252.4551,86.2969 L239.4551,101.2969 M252.4551,86.2969 L265.4551,101.2969" fill="none" style="stroke:#181818;stroke-width:0.5;"/><text fill="#000000" font-family="sans-serif" font-size="14" lengthAdjust="spacing" textLength="31.9102" x="236.5" y="115.792">User</text></g><!--entity browser--><g class="entity" data-entity="browser" data-source-line="11" data-uid="ent0004" id="entity_browser"><rect fill="#F1F1F1" height="62.5938" rx="2.5" ry="2.5" style="stroke:#181818;stroke-width:0.5;" width="250.8789" x="15" y="275.7969"/><rect fill="#F1F1F1" height="10" style="stroke:#181818;stroke-width:0.5;" width="15" x="245.8789" y="280.7969"/><rect fill="#F1F1F1" height="2" style="stroke:#181818;stroke-width:0.5;" width="4" x="243.8789" y="282.7969"/><rect fill="#F1F1F1" height="2" style="stroke:#181818;stroke-width:0.5;" width="4" x="243.8789" y="286.7969"/><text fill="#000000" font-family="sans-serif" font-size="14" font-style="italic" lengthAdjust="spacing" textLength="208.8789" x="31" y="308.792">&#171;Container: Web Application&#187;</text><text fill="#000000" font-family="sans-serif" font-size="14" lengthAdjust="spacing" textLength="92.832" x="89.0234" y="325.0889">Web Browser</text></g><!--link user to browser--><g class="link" data-entity-1="user" data-entity-2="browser" data-source-line="25" data-uid="lnk10" id="link_user_browser"><path d="M236.45,113.9669 C214.92,157.1269 179.6177,227.8775 158.4777,270.2675" fill="none" id="user-to-browser" style="stroke:#181818;stroke-width:1;"/><polygon fill="#181818" points="155.8,275.6369,163.3961,269.368,158.0314,271.1624,156.237,265.7977,155.8,275.6369" style="stroke:#181818;stroke-width:1;"/><text fill="#000000" font-family="sans-serif" font-size="13" lengthAdjust="spacing" textLength="31.0591" x="217.5" y="161.8638">Uses</text></g><!--link admin to browser--><g class="link" data-entity-1="admin" data-entity-2="browser" data-source-line="26" data-uid="lnk11" id="link_admin_browser"><path d="M46.99,118.8669 C68.86,162.7069 102.1815,229.4879 122.5415,270.2979" fill="none" id="admin-to-browser" style="stroke:#181818;stroke-width:1;"/><polygon fill="#181818" points="125.22,275.6669,124.7815,265.8278,122.9879,271.1928,117.6229,269.3992,125.22,275.6669" style="stroke:#181818;stroke-width:1;"/><text fill="#000000" font-family="sans-serif" font-size="13" lengthAdjust="spacing" textLength="77.2573" x="69.5" y="161.8638">Administers</text></g><!--link browser to webapp--><g class="link" data-entity-1="browser" data-entity-2="webapp" data-source-line="29" data-uid="lnk12" id="link_browser_webapp"><path d="M266.17,307.2969 C342.82,307.2969 433.12,307.2969 502.83,307.2969" fill="none" id="browser-to-webapp" style="stroke:#181818;stroke-width:1;"/><polygon fill="#181818" points="508.83,307.2969,499.83,303.2969,503.83,307.2969,499.83,311.2969,508.83,307.2969" style="stroke:#181818;stroke-width:1;"/><text fill="#000000" font-family="sans-serif" font-size="13" lengthAdjust="spacing" textLength="97.792" x="337" y="285.3638">HTTP Requests</text><text fill="#000000" font-family="sans-serif" font-size="13" lengthAdjust="spacing" textLength="86.6265" x="344.6489" y="300.4966">(HTML, JSON)</text></g><!--link webapp to DB--><g class="link" data-entity-1="webapp" data-entity-2="DB" data-source-line="31" data-uid="lnk13" id="link_webapp_DB"><path d="M601.5,339.0469 C601.5,373.5469 601.5,422.6069 601.5,452.7869" fill="none" id="webapp-to-DB" style="stroke:#181818;stroke-width:1;"/><polygon fill="#181818" points="601.5,458.7869,605.5,449.7869,601.5,453.7869,597.5,449.7869,601.5,458.7869" style="stroke:#181818;stroke-width:1;"/><text fill="#000000" font-family="sans-serif" font-size="13" lengthAdjust="spacing" textLength="119.4946" x="602.5" y="383.8638">Reads/Writes data</text><text fill="#000000" font-family="sans-serif" font-size="13" lengthAdjust="spacing" textLength="41.9834" x="641.2556" y="398.9966">(JDBC)</text></g><!--SRC=[TLB1RXen4BtxAwPx0WcoRSKfYf02UuWGj6aWoQ6jgjdTWRMoQxls48Ig_dl71WALMb_ME_FcpNlZUSSDTGJJqO_Isvs1jRSTDCmkNEUvnztLHdEpBRU1V6KDa-6hodQvQz7mjck7WUjMb_bqDBoFeSV5FEymCFay4GSLNhHnwB63q61jTzfiO8rje8kCiJK5Sl1Xz1vKIsi6jk3rfc6ejQUAjJLAiUPMb8eAr8Oy51etiNfjFInrvoJvH3u8De6yRM6v5oaTzAOZcDChjV2nhnHMB1NPRTrfam46m7WxXH_5QOf6oqg9MMUDs8QlprJ2H8OayUyHK1xkS7FpfkaQ8kZMkLPN65MFnyfXzO8RWkoWyQaAHraP_58WXwsBValBBBE_C1oJvshdu-Wcrl9bWqpQzsRuYWEuG0nWrUmxQWdN_V7us2UUivs_24MrS2RREohHEM6zo8kBnF3xy8dF1Lc1Z337VHpNkK4jqHA3v1VxvPSv5CV_n5rCZZH25CSBGra8Cno_ZV8wpJzaAZt9lzBfrNHSC47zRuLE-67Q8I4uc9BokzNg7XxevvO21_XcUdUhnNm0i-NdJttXEve_zIqciUK3OHtoPw-PGl8dPRDYCkrdVm00]--></g></svg>